PathFileType	4	(X/Y/Z)	TVC_60_BWA03_walk_RCNL2025.trc
DataRate	CameraRate	NumFrames	NumMarkers	Units	OrigDataRate	OrigDataStartFrame	OrigNumFrames
100	100	4	27	mm	100	207	275
Frame#	Time	R_Shoulder			L_Shoulder			C7			J_Notch			R_Elbow			L_Elbow			R_Wrist			L_Wrist			R_Asis			L_Asis			R_Psis			L_Psis			Sacral			Thoracic			Sternum			R_Thigh_Lateral			R_Knee_Lateral			R_Shank_Lateral			R_Ankle_Lateral			R_Heel			R_Toe			L_Thigh_Lateral			L_Knee_Lateral			L_Shank_Lateral			L_Ankle_Lateral			L_Heel			L_Toe		
		X1	Y1	Z1	X2	Y2	Z2	X3	Y3	Z3	X4	Y4	Z4	X5	Y5	Z5	X6	Y6	Z6	X7	Y7	Z7	X8	Y8	Z8	X9	Y9	Z9	X10	Y10	Z10	X11	Y11	Z11	X12	Y12	Z12	X13	Y13	Z13	X14	Y14	Z14	X15	Y15	Z15	X16	Y16	Z16	X17	Y17	Z17	X18	Y18	Z18	X19	Y19	Z19	X20	Y20	Z20	X21	Y21	Z21	X22	Y22	Z22	X23	Y23	Z23	X24	Y24	Z24	X25	Y25	Z25	X26	Y26	Z26	X27	Y27	Z27
207	2.06000000	-73.783051	1301.771851	171.008743	-110.215096	1338.777222	-177.045914	-149.884171	1390.739990	1.624482	-47.284801	1255.521362	-10.519190	-38.519402	983.638794	281.165558	-205.436157	1005.608459	-229.850342	113.273727	799.238922	269.092903	-154.404427	781.362823	-283.940430	-82.631813	904.347412	138.937820	-77.212730	904.279297	-148.930588	-257.601532	897.227844	51.479759	-255.263000	892.378906	-58.284592	-256.432266	894.803375	-3.402416	-219.708542	1184.882446	-2.769929	-29.354128	1062.498413	-2.575316	-145.787109	584.216125	194.053101	-162.241318	426.654022	108.273560	-236.806824	217.558762	126.112350	-305.289886	64.589081	43.422615	-340.138763	77.420578	-6.468082	-179.195160	41.357792	43.806633	-17.664549	645.239380	-221.216370	49.923092	468.460632	-151.838638	92.288498	283.657379	-194.769226	156.757355	84.932381	-131.008057	113.546074	71.660141	-87.319908	284.456024	105.833435	-123.094452
208	2.07000000	-66.538376	1300.188354	171.092651	-102.173119	1337.717407	-177.069916	-142.367889	1389.330688	1.614991	-39.450233	1254.313477	-10.487448	-27.765575	982.166992	280.252228	-197.614517	1004.601929	-229.900696	125.768833	799.295471	266.673180	-146.890423	780.307678	-284.011673	-74.574944	903.291138	138.697952	-68.386345	902.508118	-149.305130	-249.284393	895.663635	50.485512	-246.549301	890.556152	-59.161736	-247.916847	893.109894	-4.338112	-211.831589	1183.305786	-3.422482	-21.187536	1061.375732	-2.554587	-140.044098	583.401855	193.879303	-158.835983	426.104645	108.055389	-235.774628	217.917679	125.872765	-305.007019	65.235390	43.245338	-339.672516	78.612450	-6.605684	-179.178513	41.347778	43.826069	-8.712837	644.171204	-221.657593	59.219467	467.454987	-152.077271	105.327751	283.394653	-194.705856	175.392426	86.181168	-130.604660	132.680847	72.307686	-86.595139	303.089508	109.446251	-123.303856
209	2.08000000	-59.243027	1298.573608	171.121231	-94.056870	1336.661377	-177.161087	-134.790314	1387.907471	1.536926	-31.527426	1253.112427	-10.526302	-17.273823	980.644287	279.279510	-189.675262	1003.585449	-230.021744	137.892708	799.223236	264.281075	-139.267361	779.230347	-284.116470	-66.326340	902.217529	138.353256	-59.547466	900.765442	-149.784271	-240.821854	894.112122	49.472115	-237.742050	888.743103	-60.049564	-239.281952	891.427612	-5.288725	-203.840805	1181.698730	-4.134150	-12.921580	1060.245850	-2.646882	-134.201126	582.607300	193.613464	-155.231476	425.595673	107.806946	-234.631500	218.379257	125.593231	-304.690033	66.018936	43.071445	-339.172089	79.942474	-6.740390	-179.148575	41.351387	43.857571	0.532413	643.213745	-222.095383	68.768059	466.519257	-152.315170	117.686378	283.059387	-194.585999	192.267105	87.228355	-130.129715	150.052689	72.920158	-85.740715	319.922821	112.354103	-123.633942
210	2.09000000	-51.880383	1296.940308	171.086243	-85.868477	1335.617676	-177.324646	-127.145386	1386.481567	1.386505	-23.511251	1251.929565	-10.643285	-7.045193	979.077393	278.251587	-181.620316	1002.567017	-230.214523	149.638786	799.017792	261.922173	-131.533161	778.139954	-284.257721	-57.877556	901.134827	137.906906	-50.683891	899.069214	-150.372009	-232.205353	892.582764	48.440033	-228.832489	886.950439	-60.948601	-230.518921	889.766602	-6.254284	-195.730209	1180.072632	-4.901136	-4.550303	1059.118652	-2.858708	-128.232452	581.845032	193.267365	-151.403793	425.129211	107.537575	-233.329697	218.937302	125.286186	-304.329407	66.952484	42.916035	-338.627075	81.423820	-6.856865	-179.104141	41.368694	43.906818	10.095499	642.374512	-222.537125	78.580368	465.652618	-152.554871	129.393906	282.615448	-194.420029	207.376892	87.961151	-129.592056	165.626297	73.369980	-84.796997	334.955841	114.462341	-124.017166
